<svg xmlns="http://www.w3.org/2000/svg" enable-background="new 0 0 4076.28 2471.92" viewBox="0 0 4076.28 2471.92" id="basketball-score">
  <g display="none">
    <rect width="5320" height="3547" x="-621.86" y="-599.93" fill="#fff" stroke="#000" stroke-miterlimit="10"></rect>
  </g>
  <g>
    <g>
      <g>
        <path fill="#111113" d="M3906.6,2471.92H169.68C75.97,2471.92,0,2395.95,0,2302.23V169.68C0,75.97,75.97,0,169.68,0H3906.6
				c93.71,0,169.68,75.97,169.68,169.68v2132.55C4076.28,2395.95,4000.31,2471.92,3906.6,2471.92z"></path>
      </g>
      <g>
        <g>
          <g>
            <path fill="#111113" d="M3087.09,953.71H993.82c-17.59,0-31.86-14.26-31.86-31.86V67.51c0-17.59,14.26-31.86,31.86-31.86h2093.27
						c17.59,0,31.86,14.26,31.86,31.86v854.34C3118.94,939.45,3104.68,953.71,3087.09,953.71z"></path>
          </g>
        </g>
        <g>
          <g>
            <path fill="#fff" d="M3087.09,962.95H993.82c-22.66,0-41.1-18.44-41.1-41.1V67.51c0-22.66,18.44-41.1,41.1-41.1h2093.27
						c22.66,0,41.1,18.44,41.1,41.1v854.34C3128.19,944.51,3109.75,962.95,3087.09,962.95z M993.82,44.9
						c-12.47,0-22.61,10.14-22.61,22.61v854.34c0,12.47,10.14,22.61,22.61,22.61h2093.27c12.47,0,22.61-10.14,22.61-22.61V67.51
						c0-12.47-10.14-22.61-22.61-22.61H993.82z"></path>
          </g>
        </g>
      </g>
      <g>
        <g>
          <g>
            <path fill="#111113" d="M1491.63,1943.07H387.72c-17.59,0-31.86-14.26-31.86-31.86v-702.82c0-17.59,14.26-31.86,31.86-31.86
						h1103.91c17.59,0,31.86,14.26,31.86,31.86v702.82C1523.49,1928.81,1509.23,1943.07,1491.63,1943.07z"></path>
          </g>
        </g>
        <g>
          <g>
            <path fill="#fff" d="M1491.63,1952.31H387.72c-22.66,0-41.1-18.44-41.1-41.1v-702.82c0-22.66,18.44-41.1,41.1-41.1h1103.91
						c22.66,0,41.1,18.44,41.1,41.1v702.82C1532.73,1933.87,1514.3,1952.31,1491.63,1952.31z M387.72,1185.78
						c-12.47,0-22.61,10.14-22.61,22.61v702.82c0,12.47,10.14,22.61,22.61,22.61h1103.91c12.47,0,22.61-10.14,22.61-22.61v-702.82
						c0-12.47-10.14-22.61-22.61-22.61H387.72z"></path>
          </g>
        </g>
      </g>
      <g>
        <g>
          <g>
            <path fill="#111113" d="M3693.18,1943.07H2589.27c-17.59,0-31.86-14.26-31.86-31.86v-702.82c0-17.59,14.26-31.86,31.86-31.86
						h1103.91c17.59,0,31.86,14.26,31.86,31.86v702.82C3725.04,1928.81,3710.78,1943.07,3693.18,1943.07z"></path>
          </g>
        </g>
        <g>
          <g>
            <path fill="#fff" d="M3693.18,1952.31H2589.27c-22.66,0-41.1-18.44-41.1-41.1v-702.82c0-22.66,18.44-41.1,41.1-41.1h1103.91
						c22.66,0,41.1,18.44,41.1,41.1v702.82C3734.28,1933.87,3715.84,1952.31,3693.18,1952.31z M2589.27,1185.78
						c-12.47,0-22.61,10.14-22.61,22.61v702.82c0,12.47,10.14,22.61,22.61,22.61h1103.91c12.47,0,22.61-10.14,22.61-22.61v-702.82
						c0-12.47-10.14-22.61-22.61-22.61H2589.27z"></path>
          </g>
        </g>
      </g>
      <g>
        <g>
          <g>
            <path fill="#111113" d="M2255.19,2216.4h-399.77c-17.59,0-31.86-14.26-31.86-31.86v-465.13c0-17.59,14.26-31.86,31.86-31.86
						h399.77c17.59,0,31.86,14.26,31.86,31.86v465.13C2287.05,2202.14,2272.79,2216.4,2255.19,2216.4z"></path>
          </g>
        </g>
        <g>
          <g>
            <path fill="#fff" d="M2255.19,2225.65h-399.77c-22.66,0-41.1-18.44-41.1-41.1v-465.13c0-22.66,18.44-41.1,41.1-41.1h399.77
						c22.66,0,41.1,18.44,41.1,41.1v465.13C2296.29,2207.21,2277.86,2225.65,2255.19,2225.65z M1855.42,1696.8
						c-12.47,0-22.61,10.14-22.61,22.61v465.13c0,12.47,10.14,22.61,22.61,22.61h399.77c12.47,0,22.61-10.14,22.61-22.61v-465.13
						c0-12.47-10.14-22.61-22.61-22.61H1855.42z"></path>
          </g>
        </g>
      </g>
      <g>
        <path fill="#fff" d="M746.75 2030.29v150.97h-30.28v-64.24H651.8v64.24h-30.28v-150.97h30.28v62.07h64.67v-62.07H746.75zM807.74 2172.82c-11.82-6.63-21.2-15.82-28.12-27.58-6.92-11.75-10.38-25.05-10.38-39.91 0-14.71 3.46-27.94 10.38-39.69 6.92-11.75 16.29-20.94 28.12-27.58 11.82-6.63 24.8-9.95 38.93-9.95 14.28 0 27.29 3.32 39.04 9.95 11.75 6.63 21.05 15.83 27.9 27.58 6.85 11.75 10.27 24.98 10.27 39.69 0 14.85-3.43 28.15-10.27 39.91-6.85 11.75-16.19 20.95-28.01 27.58-11.83 6.63-24.8 9.95-38.93 9.95C832.54 2182.77 819.56 2179.46 807.74 2172.82zM870.68 2149.57c6.92-4.11 12.33-9.98 16.22-17.63 3.89-7.64 5.84-16.51 5.84-26.6 0-10.09-1.95-18.93-5.84-26.5-3.89-7.57-9.3-13.37-16.22-17.41-6.92-4.04-14.92-6.06-24.01-6.06-9.08 0-17.12 2.02-24.12 6.06-7 4.04-12.44 9.84-16.33 17.41-3.89 7.57-5.84 16.4-5.84 26.5 0 10.09 1.95 18.96 5.84 26.6 3.89 7.64 9.33 13.52 16.33 17.63 6.99 4.11 15.03 6.17 24.12 6.17C855.76 2155.73 863.76 2153.68 870.68 2149.57zM1110.98 2030.29v150.97h-30.28v-98.2l-40.45 98.2h-22.93l-40.66-98.2v98.2h-30.28v-150.97h34.39l48.02 112.25 48.02-112.25H1110.98zM1171.1 2054.73v37.85h50.83v24.01h-50.83v40.01h57.32v24.66h-87.6v-151.19h87.6v24.66H1171.1z"></path>
      </g>
      <g>
        <path fill="#fff" d="M2881.43 2030.29l-55.37 150.97h-36.77l-55.37-150.97h32.44l41.53 120.04 41.31-120.04H2881.43zM2929.88 2030.29v150.97h-30.28v-150.97H2929.88zM2983.41 2177.36c-8.44-3.6-15.11-8.79-20.01-15.57-4.9-6.78-7.43-14.78-7.57-24.01h32.44c.43 6.2 2.63 11.1 6.6 14.71 3.97 3.61 9.41 5.41 16.33 5.41 7.06 0 12.62-1.69 16.65-5.08 4.03-3.39 6.06-7.82 6.06-13.3 0-4.47-1.37-8.15-4.11-11.03-2.74-2.88-6.17-5.15-10.27-6.81-4.11-1.66-9.77-3.49-16.98-5.52-9.81-2.88-17.77-5.73-23.9-8.54-6.13-2.81-11.39-7.06-15.79-12.76-4.4-5.69-6.6-13.3-6.6-22.82 0-8.94 2.23-16.73 6.7-23.36 4.47-6.63 10.74-11.71 18.82-15.25 8.07-3.53 17.3-5.3 27.68-5.3 15.57 0 28.23 3.79 37.96 11.36 9.73 7.57 15.1 18.13 16.11 31.69h-33.31c-.29-5.19-2.49-9.48-6.6-12.87-4.11-3.39-9.55-5.08-16.33-5.08-5.91 0-10.64 1.51-14.17 4.54-3.53 3.03-5.3 7.43-5.3 13.19 0 4.04 1.33 7.39 4 10.06 2.67 2.67 5.98 4.83 9.95 6.49 3.96 1.66 9.55 3.57 16.76 5.73 9.8 2.89 17.81 5.77 24.01 8.65 6.2 2.89 11.53 7.21 16 12.98 4.47 5.77 6.71 13.34 6.71 22.71 0 8.08-2.09 15.57-6.27 22.49-4.18 6.92-10.31 12.44-18.39 16.55-8.08 4.11-17.67 6.16-28.77 6.16C3001.33 2182.77 2991.85 2180.97 2983.41 2177.36zM3121.73 2030.29v150.97h-30.28v-150.97H3121.73zM3254.32 2030.29v24.44h-40.23v126.53h-30.28v-126.53h-40.23v-24.44H3254.32zM3307.52 2172.82c-11.82-6.63-21.2-15.82-28.12-27.58-6.92-11.75-10.38-25.05-10.38-39.91 0-14.71 3.46-27.94 10.38-39.69 6.92-11.75 16.29-20.94 28.12-27.58 11.82-6.63 24.8-9.95 38.93-9.95 14.28 0 27.29 3.32 39.04 9.95 11.75 6.63 21.05 15.83 27.9 27.58 6.85 11.75 10.27 24.98 10.27 39.69 0 14.85-3.43 28.15-10.27 39.91-6.85 11.75-16.19 20.95-28.01 27.58-11.83 6.63-24.8 9.95-38.93 9.95C3332.32 2182.77 3319.34 2179.46 3307.52 2172.82zM3370.46 2149.57c6.92-4.11 12.33-9.98 16.22-17.63 3.89-7.64 5.84-16.51 5.84-26.6 0-10.09-1.95-18.93-5.84-26.5-3.9-7.57-9.3-13.37-16.22-17.41-6.92-4.04-14.92-6.06-24.01-6.06-9.08 0-17.12 2.02-24.11 6.06-7 4.04-12.44 9.84-16.33 17.41-3.89 7.57-5.84 16.4-5.84 26.5 0 10.09 1.95 18.96 5.84 26.6 3.9 7.64 9.34 13.52 16.33 17.63 6.99 4.11 15.03 6.17 24.11 6.17C3355.54 2155.73 3363.54 2153.68 3370.46 2149.57zM3524.02 2181.26l-33.31-58.83h-14.28v58.83h-30.28v-150.97h56.67c11.68 0 21.63 2.05 29.85 6.16 8.22 4.11 14.38 9.66 18.49 16.65 4.11 7 6.16 14.82 6.16 23.47 0 9.95-2.88 18.93-8.65 26.93-5.77 8-14.35 13.52-25.74 16.55l36.12 61.21H3524.02zM3476.44 2099.71h25.31c8.22 0 14.35-1.98 18.39-5.95 4.03-3.96 6.06-9.48 6.06-16.55 0-6.92-2.02-12.29-6.06-16.11-4.04-3.82-10.17-5.73-18.39-5.73h-25.31V2099.71z"></path>
      </g>
      <g>
        <path fill="#fff" d="M1792.48 1410.43c-3.82 7.07-9.81 12.76-17.95 17.09-8.15 4.33-18.42 6.49-30.82 6.49h-25.31v57.97h-30.28V1341h55.59c11.68 0 21.63 2.02 29.85 6.06 8.22 4.04 14.38 9.59 18.49 16.66 4.11 7.07 6.16 15.07 6.16 24.01C1798.22 1395.8 1796.3 1403.37 1792.48 1410.43zM1761.01 1403.83c4.04-3.82 6.06-9.19 6.06-16.11 0-14.71-8.22-22.06-24.66-22.06h-24.01v43.91h24.01C1750.77 1409.57 1756.98 1407.66 1761.01 1403.83zM1849.91 1365.44v37.85h50.83v24.01h-50.83v40.01h57.32v24.66h-87.6v-151.19h87.6v24.66H1849.91zM2012.56 1491.97l-33.31-58.83h-14.28v58.83h-30.28V1341h56.67c11.68 0 21.63 2.05 29.85 6.16 8.22 4.11 14.38 9.66 18.49 16.65 4.11 7 6.16 14.82 6.16 23.47 0 9.95-2.88 18.93-8.65 26.93-5.77 8-14.35 13.52-25.74 16.55l36.12 61.21H2012.56zM1964.97 1410.43h25.31c8.22 0 14.35-1.98 18.39-5.95 4.03-3.96 6.06-9.48 6.06-16.55 0-6.92-2.02-12.29-6.06-16.11-4.04-3.82-10.17-5.73-18.39-5.73h-25.31V1410.43zM2103.61 1341v150.97h-30.28V1341H2103.61zM2164.61 1483.54c-11.82-6.63-21.2-15.82-28.12-27.58-6.92-11.75-10.38-25.05-10.38-39.91 0-14.71 3.46-27.93 10.38-39.69 6.92-11.75 16.29-20.94 28.12-27.58 11.82-6.63 24.8-9.95 38.93-9.95 14.28 0 27.29 3.32 39.04 9.95 11.75 6.63 21.05 15.83 27.9 27.58 6.85 11.75 10.27 24.98 10.27 39.69 0 14.85-3.43 28.15-10.27 39.91-6.85 11.75-16.19 20.95-28.01 27.58-11.82 6.63-24.8 9.95-38.93 9.95C2189.41 1493.49 2176.43 1490.17 2164.61 1483.54zM2227.55 1460.29c6.92-4.11 12.33-9.98 16.22-17.63 3.89-7.64 5.84-16.51 5.84-26.6 0-10.09-1.95-18.93-5.84-26.5-3.89-7.57-9.3-13.37-16.22-17.41-6.92-4.04-14.93-6.06-24.01-6.06-9.09 0-17.12 2.02-24.12 6.06-7 4.04-12.44 9.84-16.33 17.41-3.89 7.57-5.84 16.4-5.84 26.5 0 10.09 1.95 18.96 5.84 26.6 3.89 7.64 9.33 13.52 16.33 17.63 6.99 4.11 15.03 6.17 24.12 6.17C2212.62 1466.45 2220.63 1464.39 2227.55 1460.29zM2397.87 1350.3c12.04 6.2 21.34 15.03 27.9 26.5 6.56 11.46 9.84 24.76 9.84 39.91 0 15.14-3.28 28.37-9.84 39.69-6.56 11.32-15.86 20.08-27.9 26.28-12.04 6.2-25.99 9.3-41.85 9.3h-52.77V1341h52.77C2371.88 1341 2385.83 1344.1 2397.87 1350.3zM2391.71 1453.26c8.65-8.65 12.98-20.83 12.98-36.55 0-15.72-4.32-28.01-12.98-36.88-8.65-8.87-20.91-13.3-36.77-13.3h-21.41v99.71h21.41C2370.8 1466.23 2383.06 1461.91 2391.71 1453.26z"></path>
      </g>
      <g>
        <path fill="#20bc0f" d="M1156.11 328.49v-79.81h149.1v451h-89.09V328.49H1156.11zM1693.72 323.54h-200.44v105.79c8.66-10.72 21.03-19.49 37.12-26.29 16.09-6.81 33.2-10.21 51.35-10.21 32.99 0 60.01 7.22 81.04 21.65 21.03 14.44 36.29 32.9 45.78 55.37 9.48 22.49 14.23 46.51 14.23 72.07 0 47.43-13.51 85.59-40.52 114.45-27.02 28.87-65.48 43.31-115.38 43.31-47.02 0-84.55-11.75-112.6-35.26-28.05-23.51-43.92-54.23-47.64-92.18h84.14c3.71 16.5 12.06 29.7 25.06 39.59 12.99 9.9 29.59 14.85 49.8 14.85 24.33 0 42.69-7.63 55.06-22.89 12.37-15.25 18.56-35.47 18.56-60.63 0-25.57-6.29-45.06-18.87-58.46-12.59-13.4-31.04-20.11-55.37-20.11-17.32 0-31.76 4.33-43.31 12.99-11.55 8.66-19.8 20.21-24.75 34.65h-82.9V247.45h279.63V323.54zM1945.82 433.35c-10.11-9.69-15.16-21.75-15.16-36.19 0-14.43 5.05-26.5 15.16-36.19 10.1-9.69 22.99-14.54 38.67-14.54 15.26 0 27.84 4.85 37.74 14.54 9.9 9.69 14.85 21.76 14.85 36.19 0 14.44-4.95 26.51-14.85 36.19-9.9 9.7-22.48 14.54-37.74 14.54C1968.8 447.89 1955.92 443.05 1945.82 433.35zM1945.82 689.48c-10.11-9.69-15.16-21.75-15.16-36.19 0-14.43 5.05-26.5 15.16-36.19 10.1-9.69 22.99-14.54 38.67-14.54 15.26 0 27.84 4.85 37.74 14.54 9.9 9.69 14.85 21.76 14.85 36.19 0 14.44-4.95 26.51-14.85 36.19-9.9 9.7-22.48 14.54-37.74 14.54C1968.8 704.02 1955.92 699.17 1945.82 689.48zM2291.02 271.89c27.01-22.47 62.58-33.72 106.72-33.72 30.1 0 55.88 5.26 77.33 15.78 21.44 10.52 37.63 24.75 48.57 42.69 10.92 17.94 16.39 38.26 16.39 60.94 0 25.98-6.71 47.95-20.11 65.89-13.41 17.94-29.39 30.01-47.95 36.19v2.47c23.91 7.42 42.58 20.63 55.99 39.59 13.4 18.98 20.11 43.31 20.11 73 0 24.75-5.68 46.82-17.01 66.2-11.35 19.39-28.05 34.55-50.11 45.47-22.07 10.93-48.57 16.39-79.5 16.39-46.61 0-84.55-11.75-113.83-35.26-29.29-23.51-44.76-58.15-46.4-103.93h84.14c.82 20.21 7.73 36.4 20.73 48.56 12.99 12.17 30.83 18.25 53.51 18.25 21.03 0 37.22-5.88 48.57-17.63 11.34-11.75 17.01-26.91 17.01-45.47 0-24.75-7.84-42.47-23.51-53.2-15.68-10.72-40.01-16.09-73-16.09h-17.94v-71.15h17.94c58.56 0 87.85-19.58 87.85-58.77 0-17.73-5.26-31.55-15.78-41.45-10.52-9.9-25.67-14.85-45.47-14.85-19.39 0-34.34 5.26-44.85 15.78-10.52 10.52-16.61 23.82-18.25 39.9h-84.76C2249.46 326.23 2264 294.37 2291.02 271.89zM2655.4 300.65c25.77-40.42 68.56-60.63 128.37-60.63 59.8 0 102.59 20.21 128.37 60.63 25.77 40.43 38.67 96.31 38.67 167.66 0 71.76-12.89 128.06-38.67 168.89-25.78 40.83-68.57 61.25-128.37 61.25-59.81 0-102.6-20.41-128.37-61.25-25.78-40.83-38.67-97.13-38.67-168.89C2616.74 396.96 2629.62 341.08 2655.4 300.65zM2859.56 391.29c-3.92-20.82-11.76-37.84-23.51-51.04-11.75-13.19-29.18-19.8-52.28-19.8-23.1 0-40.52 6.6-52.28 19.8-11.75 13.2-19.59 30.22-23.51 51.04-3.93 20.83-5.88 46.51-5.88 77.02 0 31.35 1.86 57.64 5.57 78.88 3.71 21.25 11.54 38.36 23.51 51.35 11.96 12.99 29.48 19.49 52.59 19.49 23.09 0 40.62-6.5 52.58-19.49 11.96-12.99 19.8-30.1 23.51-51.35 3.71-21.24 5.57-47.53 5.57-78.88C2865.44 437.79 2863.48 412.12 2859.56 391.29z"></path>
      </g>
      <g>
        <path fill="#3a3a3a" d="M541.49,1417.9c20.63-32.35,54.89-48.54,102.77-48.54c47.87,0,82.13,16.18,102.77,48.54
				c20.63,32.36,30.95,77.1,30.95,134.22c0,57.45-10.32,102.52-30.95,135.21c-20.64,32.69-54.9,49.03-102.77,49.03
				c-47.88,0-82.14-16.34-102.77-49.03c-20.64-32.69-30.95-77.76-30.95-135.21C510.53,1495,520.85,1450.27,541.49,1417.9z
				 M704.92,1490.46c-3.14-16.67-9.41-30.29-18.82-40.86c-9.41-10.56-23.36-15.85-41.85-15.85c-18.49,0-32.44,5.29-41.85,15.85
				c-9.41,10.57-15.69,24.19-18.82,40.86c-3.14,16.68-4.71,37.23-4.71,61.66c0,25.1,1.49,46.15,4.46,63.15
				c2.97,17.01,9.24,30.71,18.82,41.11c9.57,10.4,23.6,15.6,42.1,15.6c18.49,0,32.52-5.2,42.1-15.6
				c9.57-10.4,15.85-24.1,18.82-41.11c2.97-17,4.46-38.05,4.46-63.15C709.63,1527.69,708.06,1507.14,704.92,1490.46z"></path>
        <path fill="#dc3826" d="M866.38 1394.87c21.62-17.99 50.1-26.99 85.43-26.99 24.1 0 44.74 4.21 61.91 12.63 17.16 8.42 30.13 19.81 38.88 34.17 8.74 14.36 13.12 30.63 13.12 48.78 0 20.8-5.37 38.38-16.1 52.74-10.73 14.36-23.53 24.02-38.38 28.97v1.98c19.15 5.94 34.09 16.51 44.82 31.7 10.72 15.19 16.1 34.67 16.1 58.44 0 19.81-4.54 37.48-13.62 52.99-9.08 15.52-22.46 27.66-40.12 36.4-17.67 8.75-38.88 13.12-63.64 13.12-37.31 0-67.69-9.41-91.13-28.23-23.45-18.82-35.83-46.55-37.14-83.2h67.36c.66 16.18 6.19 29.14 16.59 38.88 10.4 9.74 24.68 14.61 42.84 14.61 16.84 0 29.79-4.71 38.88-14.11 9.08-9.41 13.62-21.54 13.62-36.4 0-19.81-6.28-34-18.82-42.59-12.55-8.58-32.03-12.88-58.44-12.88h-14.36v-56.96h14.36c46.88 0 70.33-15.68 70.33-47.05 0-14.19-4.21-25.26-12.63-33.18-8.42-7.92-20.55-11.89-36.4-11.89-15.52 0-27.49 4.21-35.91 12.63-8.42 8.42-13.29 19.07-14.61 31.95h-67.85C833.11 1438.38 844.75 1412.88 866.38 1394.87zM1158.09 1417.9c20.63-32.35 54.89-48.54 102.77-48.54 47.87 0 82.13 16.18 102.77 48.54 20.63 32.36 30.95 77.1 30.95 134.22 0 57.45-10.32 102.52-30.95 135.21-20.64 32.69-54.9 49.03-102.77 49.03-47.88 0-82.14-16.34-102.77-49.03-20.64-32.69-30.95-77.76-30.95-135.21C1127.13 1495 1137.45 1450.27 1158.09 1417.9zM1321.52 1490.46c-3.14-16.67-9.41-30.29-18.82-40.86-9.41-10.56-23.36-15.85-41.85-15.85-18.49 0-32.44 5.29-41.85 15.85-9.41 10.57-15.69 24.19-18.82 40.86-3.14 16.68-4.71 37.23-4.71 61.66 0 25.1 1.49 46.15 4.46 63.15 2.97 17.01 9.24 30.71 18.82 41.11 9.57 10.4 23.6 15.6 42.1 15.6 18.49 0 32.52-5.2 42.1-15.6 9.57-10.4 15.85-24.1 18.82-41.11 2.97-17 4.46-38.05 4.46-63.15C1326.23 1527.69 1324.66 1507.14 1321.52 1490.46z"></path>
      </g>
      <g>
        <path fill="#3a3a3a" d="M2743.03,1417.9c20.63-32.35,54.89-48.54,102.77-48.54c47.87,0,82.13,16.18,102.77,48.54
				c20.63,32.36,30.95,77.1,30.95,134.22c0,57.45-10.32,102.52-30.95,135.21c-20.64,32.69-54.9,49.03-102.77,49.03
				c-47.88,0-82.14-16.34-102.77-49.03c-20.64-32.69-30.95-77.76-30.95-135.21C2712.08,1495,2722.4,1450.27,2743.03,1417.9z
				 M2906.47,1490.46c-3.14-16.67-9.41-30.29-18.82-40.86c-9.41-10.56-23.36-15.85-41.85-15.85c-18.5,0-32.44,5.29-41.85,15.85
				c-9.41,10.57-15.69,24.19-18.82,40.86c-3.14,16.68-4.71,37.23-4.71,61.66c0,25.1,1.49,46.15,4.46,63.15
				c2.97,17.01,9.24,30.71,18.82,41.11c9.57,10.4,23.6,15.6,42.1,15.6c18.49,0,32.52-5.2,42.1-15.6
				c9.57-10.4,15.85-24.1,18.82-41.11c2.97-17,4.46-38.05,4.46-63.15C2911.18,1527.69,2909.6,1507.14,2906.47,1490.46z"></path>
        <path fill="#dc3826" d="M3062.97 1417.9c20.63-32.35 54.89-48.54 102.77-48.54 47.87 0 82.13 16.18 102.77 48.54 20.63 32.36 30.95 77.1 30.95 134.22 0 57.45-10.32 102.52-30.95 135.21-20.64 32.69-54.9 49.03-102.77 49.03-47.88 0-82.14-16.34-102.77-49.03-20.64-32.69-30.95-77.76-30.95-135.21C3032.02 1495 3042.33 1450.27 3062.97 1417.9zM3226.41 1490.46c-3.14-16.67-9.41-30.29-18.82-40.86-9.41-10.56-23.36-15.85-41.85-15.85-18.49 0-32.44 5.29-41.85 15.85-9.41 10.57-15.69 24.19-18.82 40.86-3.14 16.68-4.7 37.23-4.7 61.66 0 25.1 1.48 46.15 4.46 63.15 2.97 17.01 9.24 30.71 18.82 41.11 9.57 10.4 23.6 15.6 42.1 15.6 18.49 0 32.52-5.2 42.1-15.6 9.57-10.4 15.85-24.1 18.82-41.11 2.97-17 4.46-38.05 4.46-63.15C3231.11 1527.69 3229.54 1507.14 3226.41 1490.46zM3581.76 1428.8l-131.74 308.55h-70.33l132.73-300.63h-169.38v-59.43h238.72V1428.8z"></path>
      </g>
      <g>
        <path fill="#20bc0f" d="M1952.49,2045.33c31.7-26.41,56.96-48.45,75.78-66.12c18.82-17.66,34.5-36.07,47.05-55.22
				c12.54-19.15,18.82-37.96,18.82-56.46c0-16.84-3.96-30.04-11.89-39.62c-7.93-9.57-20.14-14.36-36.65-14.36
				c-16.51,0-29.22,5.53-38.14,16.59c-8.91,11.07-13.54,26.17-13.87,45.32h-67.36c1.32-39.62,13.12-69.66,35.41-90.14
				c22.29-20.47,50.59-30.71,84.94-30.71c37.64,0,66.53,9.99,86.67,29.96c20.14,19.98,30.21,46.31,30.21,78.99
				c0,25.75-6.93,50.35-20.8,73.79c-13.87,23.45-29.72,43.83-47.55,61.17c-17.83,17.33-41.11,38.22-69.83,62.65h146.1v57.45h-244.66
				v-51.51L1952.49,2045.33z"></path>
      </g>
    </g>
  </g>
</svg>
